<?xml version="1.0" encoding="UTF-8"?>
<svg width="8px" height="15px" viewBox="0 0 8 15" version="1.1" xmlns="http://www.w3.org/2000/svg" xmlns:xlink="http://www.w3.org/1999/xlink">
    <!-- Generator: Sketch 59.1 (86144) - https://sketch.com -->
    <title>返回 (4)</title>
    <desc>Created with Sketch.</desc>
    <g id="Mobile" stroke="none" stroke-width="1" fill="none" fill-rule="evenodd">
        <g id="BACK-UP-MNEMONIC-PHRASE" transform="translate(-18.000000, -139.000000)" fill="#4A77B7" fill-rule="nonzero">
            <g id="返回-(4)" transform="translate(18.000000, 139.000000)">
                <path d="M7.19064494,14.2222184 C6.99256099,14.2222184 6.79447704,14.1471725 6.64247309,13.9970806 L0.231996049,7.66643766 C0.0836266667,7.51977494 6.1284311e-14,7.32015815 6.1284311e-14,7.11139173 C6.1284311e-14,6.90262531 0.0836266667,6.70300852 0.231996049,6.55634581 L6.64247309,0.225307784 C6.94896198,-0.0775623398 7.44305778,-0.0748917226 7.74570667,0.232166055 C8.04854519,0.538828771 8.04552691,1.03254531 7.7388484,1.33539964 L1.89048099,7.11139173 L7.7388484,12.8869888 C8.04551111,13.1898431 8.04854519,13.6835596 7.74570667,13.9902224 C7.59314963,14.1448811 7.392,14.2222184 7.19064494,14.2222184 Z" id="Shape"></path>
            </g>
        </g>
    </g>
</svg>