<?xml version="1.0" encoding="UTF-8"?>
<svg width="163px" height="124px" viewBox="0 0 163 124" version="1.1" xmlns="http://www.w3.org/2000/svg" xmlns:xlink="http://www.w3.org/1999/xlink">
    <!-- Generator: Sketch 59.1 (86144) - https://sketch.com -->
    <title>编组 3</title>
    <desc>Created with Sketch.</desc>
    <defs>
        <linearGradient x1="96.9083822%" y1="45.2311349%" x2="-0.510340306%" y2="57.7836708%" id="linearGradient-1">
            <stop stop-color="#4A77B7" offset="0%"></stop>
            <stop stop-color="#4066EA" stop-opacity="0.4" offset="100%"></stop>
        </linearGradient>
    </defs>
    <g id="Mobile" stroke="none" stroke-width="1" fill="none" fill-rule="evenodd">
        <g id="BACK-UP-WALLET" transform="translate(-102.000000, -255.000000)">
            <g id="编组-3" transform="translate(96.467838, 248.000000)">
                <text id="error-text-address" opacity="0" font-family="GothamRounded-Book, Gotham Rounded" font-size="10" font-weight="300" fill="#FF0000">
                    <tspan x="43.427162" y="39.2366301">Error text message.</tspan>
                </text>
                <g id="bg" transform="translate(85.956521, 61.769280) rotate(-5.000000) translate(-85.956521, -61.769280) translate(4.456521, 7.769280)" fill="url(#linearGradient-1)" fill-opacity="0.1" fill-rule="nonzero">
                    <path d="M7.77185953,95.7692543 C28.1246186,119.154798 45.3395889,101.186254 65.093834,91.3978267 C99.5008022,74.3490465 138.935042,116.618648 156.633664,94.0155829 C169.741901,77.2753741 158.163382,34.1480637 130.524669,14.1568048 C106.455708,-3.25240028 79.5045261,-3.06156207 47.7320042,11.1416461 C13.8931937,26.2688683 -14.1315391,70.6024122 7.77185953,95.7692543 Z" id="Shape"></path>
                </g>
                <ellipse id="Oval备份" fill="#E1E7F1" fill-rule="nonzero" transform="translate(78.822786, 126.161640) scale(1, -1) rotate(-1.050460) translate(-78.822786, -126.161640) " cx="78.8227862" cy="126.16164" rx="23.3032227" ry="4.43697537"></ellipse>
                <g id="编组" transform="translate(32.532162, 12.236630)" fill-rule="nonzero">
                    <path d="M55.7226742,67.2524648 C56.6133468,67.3666916 57.5376044,67.4392593 58.3906619,67.1624271 C58.5250017,67.1207679 58.6727754,67.0280426 58.6593415,66.8936581 C58.6497353,66.8448261 58.6290534,66.798851 58.5988886,66.7592735 C58.2773249,66.2768304 58.007171,65.7620156 57.79285,65.2232583 C57.784356,65.1951594 57.766898,65.1706157 57.7431443,65.1533783 C57.7153673,65.1433183 57.6849437,65.1433183 57.6571668,65.1533783 C57.2635513,65.2568544 56.9236717,65.5108412 56.532743,65.6196927 C56.3334192,65.6743937 56.1253828,65.6899104 55.9201536,65.6653834 C55.7428251,65.6452257 55.5010135,65.4987466 55.3398058,65.5175604 C55.4311569,66.1048208 55.6541609,66.6531097 55.7226742,67.2524648 Z" id="路径" fill="#4A77B7"></path>
                    <path d="M73.2093106,65.1458333 C73.9701967,64.707672 74.7589413,64.2476025 75.20816,63.5713735 C75.2402314,63.5309286 75.2588636,63.4840408 75.2621359,63.4355434 C75.2544742,63.3878138 75.2322874,63.3425437 75.1977131,63.304095 C74.7698043,62.7334661 74.2189054,62.2347029 73.5732126,61.8333333 C73.2363173,62.032962 72.931943,62.2686408 72.6678105,62.5343915 C72.4762831,62.7038139 71.946971,62.9725529 71.9417476,63.2310681 C71.9417476,63.3771219 72.1437219,63.5465443 72.2377444,63.6692295 C72.364849,63.8269676 72.4849889,63.9876268 72.5999053,64.151207 C72.6660693,64.2315366 73.2702511,65.1137015 73.2093106,65.1458333 Z" id="路径" fill="#4A77B7"></path>
                    <path d="M58.6520819,69.9799332 C58.6635505,70.1551651 58.6220029,70.3295573 58.5345656,70.4731965 C58.4659917,70.5530592 58.3811035,70.6115666 58.2877815,70.6432874 C56.9260619,71.2079889 55.3498752,70.5038129 53.9910936,71.0600099 C53.7119925,71.1739707 53.4475809,71.3389588 53.1670109,71.4478169 C52.8325208,71.5642611 52.4874246,71.6350453 52.1387437,71.6587295 C51.658396,71.7114577 51.1751104,71.7454758 50.6932938,71.760784 C50.3272103,71.7907965 49.9593317,71.7534812 49.6033306,71.650225 C49.2432979,71.5435221 48.9394154,71.2646258 48.7674962,70.8831154 C48.6936365,70.7140218 48.6789053,70.518471 48.7263655,70.3371239 C48.7476685,70.2749422 48.7779713,70.2174211 48.8159717,70.1670331 C48.9080574,70.0474147 49.0161871,69.9457584 49.1362035,69.8659723 L49.6371165,69.4917726 C49.8720054,69.2994439 50.1272397,69.142815 50.3965652,69.0257237 C50.5948739,68.9508838 50.8049342,68.9185665 51.0061808,68.8556329 C51.7098094,68.6175058 52.2474462,67.9711607 52.7468903,67.3503292 L53.4284845,66.5083797 C53.492206,66.4157403 53.5730113,66.3407722 53.664986,66.2889625 C53.7595191,66.2524588 53.8599982,66.241406 53.9587766,66.2566453 C54.6208608,66.3113808 55.2601681,66.5594986 55.8170023,66.9778303 C55.9593182,67.101439 56.1130277,67.2064021 56.2753157,67.2907974 C56.674871,67.4710937 57.1875356,67.335021 57.5562428,67.1070993 C57.7310483,66.9982412 57.6928555,66.9370085 57.7663031,66.743105 C57.8397508,66.5492015 58.0189631,66.4250352 58.1746721,66.6019296 C58.2216514,66.6631025 58.2549426,66.7366943 58.271623,66.8162441 C58.4185183,67.3775437 58.3626981,67.9813661 58.3626981,68.5698803 C58.3583887,68.6618986 58.3683386,68.754067 58.3920772,68.8420256 C58.4295601,68.9307068 58.4743246,69.0150066 58.5257519,69.09376 C58.5362201,69.1146037 58.5455419,69.1361915 58.553662,69.1583946 C58.6435203,69.4189471 58.6772978,69.7008974 58.6520819,69.9799332 Z" id="路径" fill="#514E7F"></path>
                    <path d="M58.6504268,69.1557433 C58.6618935,69.3035807 58.6203528,69.4507097 58.5329301,69.5718934 C58.4643675,69.6392709 58.3794935,69.6886316 58.286187,69.7153934 C56.9246939,70.1918134 55.3487693,69.5977234 53.9902136,70.0669684 C53.7111589,70.1631134 53.4467913,70.3023084 53.1662679,70.3941484 C52.8318335,70.4923885 52.4867947,70.5521068 52.1381717,70.5720884 C51.6579039,70.6165734 51.1746987,70.6452734 50.6929622,70.6581884 C50.3269395,70.6835089 49.9591221,70.6520272 49.6031802,70.5649134 C49.2432073,70.4748917 48.9393754,70.2395961 48.7674848,69.9177284 C48.6936374,69.7750697 48.6789086,69.6100899 48.726361,69.4570934 C48.7476604,69.4046327 48.7779582,69.3561041 48.8159522,69.3135934 C48.8952625,69.4757484 48.9525422,69.6909984 49.0024783,69.7684884 C49.1389547,70.0008028 49.3712017,70.1644547 49.6398979,70.2176434 C49.8386939,70.2295693 50.0380081,70.20474 50.2273814,70.1444584 C51.4610969,69.8459784 52.7726539,69.8416734 53.957902,69.3896484 C54.3647343,69.2332333 54.7524735,69.0251583 55.1798678,68.9304483 C55.607262,68.8357383 56.0610931,68.8615683 56.5017057,68.8256933 C57.1978737,68.7711633 57.8720111,68.5659583 58.5578982,68.4583333 C58.6464634,68.6799588 58.6782284,68.9193795 58.6504268,69.1557433 L58.6504268,69.1557433 Z" id="路径" fill="#464353"></path>
                    <path d="M77.4644193,65.7320848 C77.3995922,66.3464411 77.0710363,66.8752762 76.7100668,67.323826 C76.3490972,67.7723759 75.9409807,68.1755472 75.6536784,68.692165 C75.3000757,69.3327012 75.1409544,70.1268264 74.6812708,70.6678788 C74.5048157,70.8646349 74.3065448,71.0319816 74.0919328,71.1652979 C73.851516,71.3333299 73.5972806,71.4719257 73.3331602,71.5789412 C72.6465815,71.8389954 71.9069623,71.7796542 71.1894434,71.7168223 C70.9564908,71.7141696 70.7258712,71.6615415 70.508758,71.5614879 C70.4099201,71.502008 70.315316,71.4331327 70.2258758,71.3555389 C70.0460151,71.2243359 69.8946292,71.0450035 69.7838723,70.8319399 C69.7294864,70.7160919 69.7142171,70.5801197 69.7411453,70.4514579 C69.782148,70.3097349 69.8525716,70.1824983 69.9459402,70.0814479 C70.1074012,69.8825457 70.2807201,69.6976462 70.4645577,69.5281782 C70.7168014,69.3353433 70.9440986,69.1001842 71.1393496,68.8300461 C71.2591407,68.6165846 71.3473316,68.3804912 71.4001317,68.131914 C71.5044938,67.6964224 71.5682286,67.2486873 71.5901932,66.7967363 C71.5893862,66.4964284 71.6155627,66.1968716 71.6682805,65.9031272 C71.777308,65.44236 72.0660836,65.0304621 72.03367,64.5539869 C72.0205574,64.4857585 72.0257069,64.4143861 72.0484034,64.3497833 C72.0827027,64.2993023 72.1305226,64.2642054 72.1839512,64.2502995 C72.4091062,64.1439924 72.6465493,64.0786751 72.88821,64.0565678 C73.1336702,64.0365116 73.373776,64.1479775 73.5423752,64.3602553 C73.6425626,64.5033723 73.7088632,64.7093213 73.8561977,64.7651719 C73.9292057,64.7887749 74.0057946,64.7923562 74.0801461,64.7756439 C74.4425889,64.7320106 74.8256586,64.6779054 75.1114875,64.4003979 C75.3785721,64.1166171 75.5334621,63.7135866 75.5387575,63.2886225 C75.5387575,63.1297974 75.4783504,62.963991 75.686092,62.9395564 C75.8422666,62.9151218 75.9660276,63.1140895 76.0455882,63.2362626 C76.3328905,63.6917938 76.6275594,64.1682689 76.7351136,64.723284 C76.7769415,64.7040525 76.8213746,64.6939985 76.8662413,64.6936133 C77.0527573,64.6916688 77.2282838,64.7979149 77.3362383,64.9781022 C77.453573,65.2032462 77.4990398,65.4706894 77.4644193,65.7320848 L77.4644193,65.7320848 Z" id="路径" fill="#514E7F"></path>
                    <path d="M77.4638881,65.2001318 C77.3985952,65.8686066 77.0676785,66.4440268 76.7041154,66.9320894 C76.3405523,67.420152 75.9295034,67.8588386 75.6401368,68.4209652 C75.2839934,69.1179262 75.1237288,69.9820059 74.6607423,70.5707196 C74.4830194,70.784808 74.2833239,70.9668962 74.0671699,71.1119564 C73.8250256,71.2947902 73.5689635,71.445595 73.3029453,71.5620374 C72.6114335,71.8449998 71.8665,71.7804312 71.1438256,71.7120645 C70.9091992,71.7091781 70.6769226,71.651914 70.4582494,71.5430467 C70.3587014,71.4783272 70.2634176,71.4033847 70.1733347,71.3189557 C69.9921817,71.176195 69.839708,70.9810652 69.7281553,70.7492328 C69.8672574,70.6636423 70.0190303,70.6170264 70.1733347,70.6124993 C70.4938638,70.6352882 70.7283249,71.0226998 71.0354986,71.1423416 C71.4732583,71.3113594 71.9095341,70.9163515 72.3532294,70.7815171 C72.642596,70.6941596 72.9468019,70.7169485 73.2332006,70.5916094 C73.4718732,70.4735648 73.6924015,70.3025593 73.8846463,70.0864551 C74.1481436,69.8453568 74.382621,69.5561589 74.58061,69.2280726 C74.7450352,68.8999669 74.8818261,68.5504842 74.9886911,68.1854797 C75.2230068,67.4859756 75.498835,66.8104616 75.8137568,66.1648625 C75.860337,66.0626462 75.9166635,65.9682348 75.981441,65.8837992 C76.0511857,65.802139 76.1298341,65.7451667 76.2084824,65.6730018 C76.5052687,65.3862413 76.6284349,64.9133712 76.7323101,64.4499966 C76.7604502,64.3091542 76.7997299,64.1723473 76.8495407,64.0416667 C77.0373968,64.0395794 77.2141845,64.1551847 77.3229147,64.3512447 C77.4505948,64.6020129 77.5008426,64.9045854 77.4638881,65.2001318 L77.4638881,65.2001318 Z" id="路径" fill="#464353"></path>
                    <path d="M88.5436893,44.7613808 L88.5436893,42.8490573 C88.5436893,39.9176173 86.099835,37.5416667 83.0865682,37.5416667 L5.45712111,37.5416667 C2.44385432,37.5416667 0,39.9176173 0,42.8490573 L0,46.375 L88.5436893,44.7613808 Z" id="路径" fill="#33323D"></path>
                    <g id="编组-2" transform="translate(2.213592, 0.000000)">
                        <path d="M9.25364937,34.4078729 C9.25364937,34.4078729 9.03675375,48.0776707 11.4226056,52.5755158 C13.8084575,57.0733609 14.8309654,76.6400885 14.8309654,76.6400885 C14.8309654,76.6400885 39.8421293,79.2682905 57.271242,73.4925412 C74.7003546,67.716792 111.786408,65.3545577 111.786408,65.3545577 L105.536715,22.5652263 C105.536715,22.5652263 74.6616232,20.5539436 57.0977255,29.0633376 C39.5338277,37.5727317 9.25364937,34.4078729 9.25364937,34.4078729 Z" id="路径" fill="#83ABE4"></path>
                        <path d="M9.25364937,34.4078729 C9.25364937,34.4078729 9.03675375,48.0776707 11.4226056,52.5755158 C13.8084575,57.0733609 14.8309654,76.6400885 14.8309654,76.6400885 C14.8309654,76.6400885 39.8421293,79.2682905 57.271242,73.4925412 C74.7003546,67.716792 111.786408,65.3545577 111.786408,65.3545577 L105.536715,22.5652263 C105.536715,22.5652263 74.6616232,20.5539436 57.0977255,29.0633376 C39.5338277,37.5727317 9.25364937,34.4078729 9.25364937,34.4078729 Z" id="路径" fill="#000000" opacity="0.1"></path>
                        <path d="M14.6300607,39.6615343 C14.6300607,39.6615343 13.8467196,50.9643409 15.8120527,54.575814 C17.7773857,58.187287 17.8689048,74.3095965 17.8689048,74.3095965 C17.8689048,74.3095965 40.405861,75.3725366 56.4372082,69.8244309 C72.4685554,64.2763252 106.156876,60.6774686 106.156876,60.6774686 L102.328588,25.6114848 C102.328588,25.6114848 74.4540536,25.3197283 58.1853774,33.1293416 C41.9167011,40.9389549 14.6300607,39.6615343 14.6300607,39.6615343 Z" id="路径" fill="#83ABE4"></path>
                        <ellipse id="椭圆形" fill="#000000" opacity="0.1" transform="translate(56.439704, 50.616729) rotate(-7.100000) translate(-56.439704, -50.616729) " cx="56.4397039" cy="50.6167292" rx="5.84948376" ry="12.7093544"></ellipse>
                        <path d="M88.4867145,2.03254561 C88.4867145,2.03254561 58.4836174,9.69806366 44.3351604,23.1909398 C30.1867034,36.683816 0.40210938,43.0727906 0.40210938,43.0727906 C0.40210938,43.0727906 4.32586547,56.0713191 7.95518489,59.588071 C11.5845043,63.104823 18.4681238,81.3018242 18.4681238,81.3018242 C18.4681238,81.3018242 43.0721821,76.0360826 57.9179891,65.1666909 C72.7637961,54.2972992 107.363205,40.5697643 107.363205,40.5697643 L88.4867145,2.03254561 Z" id="路径" fill="#000000" opacity="0.2"></path>
                        <path d="M0,41.0394905 C0,41.0394905 3.92226325,54.03984 7.54853588,57.5566613 C11.1748085,61.0734827 18.0616271,79.2692786 18.0616271,79.2692786 C18.0616271,79.2692786 42.6691412,74.0049975 57.516713,63.1353913 C72.3642848,52.2657851 106.961095,38.5426725 106.961095,38.5426725 L88.0843316,0 C88.0843316,0 58.0823495,7.66566933 43.9336876,21.1588118 C29.7850256,34.6519542 0,41.0394905 0,41.0394905 Z" id="路径" fill="#83ABE4"></path>
                        <path d="M0,41.0394905 C0,41.0394905 3.92226325,54.03984 7.54853588,57.5566613 C11.1748085,61.0734827 18.0616271,79.2692786 18.0616271,79.2692786 C18.0616271,79.2692786 42.6691412,74.0049975 57.516713,63.1353913 C72.3642848,52.2657851 106.961095,38.5426725 106.961095,38.5426725 L88.0843316,0 C88.0843316,0 58.0823495,7.66566933 43.9336876,21.1588118 C29.7850256,34.6519542 0,41.0394905 0,41.0394905 Z" id="路径" fill="#000000" opacity="0.1"></path>
                        <path d="M6.83585947,44.2040242 C6.83585947,44.2040242 9.49759824,55.1558457 12.4535374,57.9656151 C15.4094765,60.7753844 20.3504936,76.0172056 20.3504936,76.0172056 C20.3504936,76.0172056 42.081059,70.0240776 55.6405974,59.7896106 C69.2001358,49.5551436 100.125236,35.6993705 100.125236,35.6993705 L85.9246503,3.65858209 C85.9246503,3.65858209 59.3552637,12.0360898 46.2509616,24.4869782 C33.1466595,36.9378666 6.83585947,44.2040242 6.83585947,44.2040242 Z" id="路径" fill="#83ABE4"></path>
                        <ellipse id="椭圆形" fill="#000000" opacity="0.1" transform="translate(49.848227, 41.771846) rotate(-24.970000) translate(-49.848227, -41.771846) " cx="49.8482274" cy="41.7718458" rx="5.86264131" ry="12.6818676"></ellipse>
                    </g>
                    <path d="M89.6504854,46.2919469 L89.6504854,100.231975 C89.6504854,101.469178 89.158263,102.655686 88.2821453,103.530374 C87.4060276,104.405062 86.217814,104.895833 84.9790041,104.895833 L4.66835029,104.895833 C2.0898384,104.89497 0,102.807142 0,100.231975 L0,40.8541667 C2.30129944,41.7078262 2.30129944,41.7078262 4.66835029,41.6359062 L84.9790041,41.6359062 C87.5553282,41.635901 89.6453052,43.7189699 89.6504854,46.2919469 Z" id="路径" fill="#000000" opacity="0.1"></path>
                    <path d="M89.6504854,47.3975443 L89.6504854,101.336256 C89.6504854,103.912223 87.5583808,106 84.9790041,106 L4.66835029,106 C2.0898384,105.999137 0,103.91136 0,101.336256 L0,41.9583333 C2.30129944,42.8104086 2.30129944,42.8104086 4.66835029,42.7400538 L84.9790041,42.7400538 C87.5559383,42.7400502 89.6461675,44.8240193 89.6504854,47.3975443 Z" id="路径" fill="#504F60"></path>
                    <path d="M89.6504854,67.3541667 L89.6504854,83.9166667 L72.7770938,83.9166667 C68.018301,83.8556725 64.1941748,80.1659551 64.1941748,75.6354167 C64.1941748,71.1048783 68.018301,67.4151609 72.7770938,67.3541667 L89.6504854,67.3541667 Z" id="路径" fill="#000000" opacity="0.1"></path>
                    <path d="M89.6504854,66.25 L89.6504854,82.8125 L72.7770938,82.8125 C68.018301,82.7515169 64.1941748,79.0624682 64.1941748,74.5327509 C64.1941748,70.0030336 68.018301,66.3139849 72.7770938,66.2530018 L89.6504854,66.25 Z" id="路径" fill="#33323D"></path>
                    <ellipse id="椭圆形" fill="#000000" opacity="0.1" cx="73.6019417" cy="76.7395833" rx="3.87378641" ry="3.86458333"></ellipse>
                    <ellipse id="椭圆形" fill="#4A77B7" cx="73.6019417" cy="75.6354167" rx="3.87378641" ry="3.86458333"></ellipse>
                </g>
                <ellipse id="Oval" fill="#E1E7F1" fill-rule="nonzero" transform="translate(145.403431, 116.623825) scale(1, -1) rotate(-1.050460) translate(-145.403431, -116.623825) " cx="145.403431" cy="116.623825" rx="9.98709546" ry="1.66386576"></ellipse>
                <g id="编组-3备份" transform="translate(129.532162, 73.236630)" fill-rule="nonzero">
                    <ellipse id="椭圆形" fill="#6A8FC4" cx="15.4" cy="20" rx="15.4" ry="20"></ellipse>
                    <ellipse id="椭圆形" fill="#000000" opacity="0.1" cx="15.4" cy="20" rx="15.4" ry="20"></ellipse>
                    <ellipse id="椭圆形" fill="#83ABE4" cx="17.6" cy="20" rx="15.4" ry="20"></ellipse>
                    <ellipse id="椭圆形" fill="#000000" opacity="0.1" cx="17.6" cy="19.4444444" rx="13.2" ry="17.2222222"></ellipse>
                    <path d="M17.44996,27.7777778 L17.44996,25.7274376 C16.255855,25.7072184 15.0205342,25.3416737 14.3,24.8341938 L14.7940676,23.4741058 C15.6503513,24.0310762 16.6887944,24.3367998 17.7587766,24.3469331 C19.220574,24.3469331 20.2088004,23.514645 20.2088004,22.3575506 C20.2088004,21.2409933 19.4058274,20.5508397 17.8823077,19.9417644 C15.782294,19.1297961 14.4852534,18.1959146 14.4852534,16.4298414 C14.4852534,14.7448487 15.6999663,13.4659397 17.5941113,13.1614513 L17.5941113,11.1111111 L18.8705441,11.1111111 L18.8705441,13.0802744 C19.8223646,13.0915541 20.750778,13.3379992 21.5470469,13.7907458 L21.0322727,15.1306125 C20.2685917,14.6768741 19.3636427,14.4360788 18.438189,14.4403603 C16.852952,14.4403603 16.2558476,15.3741475 16.2558476,16.1862122 C16.2558476,17.2418118 17.0176074,17.7696095 18.8088168,18.5005016 C20.9293371,19.3531076 22,20.4087072 22,22.215416 C22,23.8191333 20.8676049,25.3214545 18.7469957,25.6663813 L18.7469957,27.7777778 L17.44996,27.7777778 Z" id="路径" fill="#DCE7F7"></path>
                </g>
            </g>
        </g>
    </g>
</svg>