<?xml version="1.0" encoding="UTF-8"?>
<svg width="24px" height="32px" viewBox="0 0 24 32" version="1.1" xmlns="http://www.w3.org/2000/svg" xmlns:xlink="http://www.w3.org/1999/xlink">
    <!-- Generator: Sketch 59.1 (86144) - https://sketch.com -->
    <title>形状 2</title>
    <desc>Created with Sketch.</desc>
    <g id="Mobile" stroke="none" stroke-width="1" fill="none" fill-rule="evenodd">
        <g id="形状-2" fill="#4A77B7" fill-rule="nonzero">
            <path d="M19.4029851,10.4477612 L19.4029851,7.46268656 C19.4029851,3.34104476 16.0619403,-3.19744231e-14 11.9402985,-3.19744231e-14 C7.8186567,-3.19744231e-14 4.47761194,3.34104476 4.47761194,7.46268656 L4.47761194,10.4477612 C2.00469515,10.4477612 2.84217094e-14,12.4524564 2.84217094e-14,14.9253731 L2.84217094e-14,26.8656716 C2.84217094e-14,29.3385884 2.00469515,31.3432836 4.47761194,31.3432836 L19.4029851,31.3432836 C21.8759018,31.3432836 23.880597,29.3385884 23.880597,26.8656716 L23.880597,14.9253731 C23.880597,12.4524564 21.8759018,10.4477612 19.4029851,10.4477612 Z M6.71641791,7.46268656 C6.71641791,4.58208953 9.0597015,2.23880597 11.9402985,2.23880597 C14.8208955,2.23880597 17.1641791,4.58208956 17.1641791,7.46268656 L17.1641791,10.4477612 L6.71641791,10.4477612 L6.71641791,7.46268656 Z M13.0597015,23.880597 C13.0597015,24.4988262 12.5585277,25 11.9402985,25 C11.3220693,25 10.8208955,24.4988262 10.8208955,23.880597 L10.8208955,17.9104478 C10.8208955,17.2922186 11.3220693,16.7910448 11.9402985,16.7910448 C12.5585277,16.7910448 13.0597015,17.2922186 13.0597015,17.9104478 L13.0597015,23.880597 Z" id="形状"></path>
        </g>
    </g>
</svg>