<?xml version="1.0" encoding="UTF-8"?>
<svg width="24px" height="32px" viewBox="0 0 24 32" version="1.1" xmlns="http://www.w3.org/2000/svg" xmlns:xlink="http://www.w3.org/1999/xlink">
    <!-- Generator: Sketch 59.1 (86144) - https://sketch.com -->
    <title>编组</title>
    <desc>Created with Sketch.</desc>
    <g id="Mobile" stroke="none" stroke-width="1" fill="none" fill-rule="evenodd">
        <g id="编组" fill="#4A77B7" fill-rule="nonzero">
            <path d="M19.4029851,10.4477612 L4.47761194,10.4477612 C2.00469515,10.4477612 0,12.4524564 0,14.9253731 L0,26.8656716 C0,29.3385884 2.00469515,31.3432836 4.47761194,31.3432836 L19.4029851,31.3432836 C21.8759018,31.3432836 23.880597,29.3385884 23.880597,26.8656716 L23.880597,14.9253731 C23.880597,12.4524564 21.8759018,10.4477612 19.4029851,10.4477612 Z M13.0597015,23.880597 C13.0597015,24.4988262 12.5585277,25 11.9402985,25 C11.3220693,25 10.8208955,24.4988262 10.8208955,23.880597 L10.8208955,17.9104478 C10.8208955,17.2922186 11.3220693,16.7910448 11.9402985,16.7910448 C12.5585277,16.7910448 13.0597015,17.2922186 13.0597015,17.9104478 L13.0597015,23.880597 Z" id="形状备份"></path>
            <path d="M8.56880733,11 L8.56880733,6.64634145 C8.56880733,4.32926828 10.559633,2.43902439 13,2.43902439 C15.440367,2.43902439 17.4311926,4.32926828 17.4311927,6.64634145 C17.4311927,7.02321269 17.6136672,7.36158271 17.8988717,7.58573569 C18.1212561,7.76051607 18.4060993,7.86585364 18.7155963,7.86585364 C19.4220183,7.86585364 20,7.31707316 20,6.64634145 C20,2.98780487 16.853211,0 13,0 C9.14678896,0 6,2.98780487 6,6.64634145 L6,11 L8.56880733,11 Z" id="路径" transform="translate(13.000000, 5.500000) scale(-1, 1) translate(-13.000000, -5.500000) "></path>
        </g>
    </g>
</svg>